<svg width="20" height="20" viewBox="0 0 20 20" fill="none" xmlns="http://www.w3.org/2000/svg">
<g clip-path="url(#clip0_99_2228)">
<path d="M12.1133 18.0717C12.1449 18.1506 12.2 18.2179 12.271 18.2646C12.342 18.3114 12.4256 18.3352 12.5106 18.3331C12.5956 18.3309 12.6779 18.3028 12.7464 18.2525C12.815 18.2022 12.8665 18.1321 12.8941 18.0517L18.3108 2.21836C18.3374 2.14452 18.3425 2.06461 18.3254 1.98799C18.3083 1.91136 18.2698 1.84119 18.2143 1.78567C18.1588 1.73016 18.0886 1.69161 18.012 1.67452C17.9353 1.65743 17.8554 1.66252 17.7816 1.68919L1.94825 7.10586C1.86783 7.13344 1.79777 7.18496 1.74748 7.2535C1.69718 7.32205 1.66906 7.40434 1.66688 7.48933C1.66471 7.57431 1.68858 7.65794 1.7353 7.72897C1.78202 7.79999 1.84935 7.85503 1.92825 7.88669L8.53659 10.5367C8.74549 10.6203 8.9353 10.7454 9.09456 10.9044C9.25382 11.0634 9.37924 11.2529 9.46325 11.4617L12.1133 18.0717Z" stroke="#976819" stroke-width="1.66543" stroke-linecap="round" stroke-linejoin="round"/>
<path d="M18.2116 1.78918L9.09497 10.905" stroke="#976819" stroke-width="1.66543" stroke-linecap="round" stroke-linejoin="round"/>
</g>
<defs>
<clipPath id="clip0_99_2228">
<rect width="20" height="20" fill="white"/>
</clipPath>
</defs>
</svg>
