<svg width="33" height="33" viewBox="0 0 33 33" fill="none" xmlns="http://www.w3.org/2000/svg">
<path d="M26.6475 3.30774H6.35249C5.26485 3.30774 4.25976 3.88807 3.71597 4.82993C3.17215 5.77178 3.17215 6.9322 3.71597 7.87431C4.2598 8.81616 5.26485 9.39624 6.35249 9.39624H26.6475C27.7351 9.39624 28.7402 8.81616 29.284 7.87431C29.8278 6.9322 29.8278 5.77178 29.284 4.82993C28.7402 3.88807 27.7351 3.30774 26.6475 3.30774ZM26.6475 7.3668H6.35249C5.98994 7.3668 5.65485 7.17344 5.47355 6.85949C5.29227 6.54553 5.29227 6.15882 5.47355 5.84487C5.65482 5.53091 5.98992 5.3373 6.35249 5.3373H26.6475C27.01 5.3373 27.3451 5.53091 27.5264 5.84487C27.7078 6.15882 27.7077 6.54554 27.5264 6.85949C27.3452 7.17344 27.0101 7.3668 26.6475 7.3668Z" fill="#976819"/>
<path d="M26.6475 13.4559H6.35249C5.26485 13.4559 4.25976 14.0362 3.71597 14.9781C3.17215 15.9199 3.17215 17.0803 3.71597 18.0222C4.2598 18.9641 5.26485 19.5444 6.35249 19.5444H26.6475C27.7351 19.5444 28.7402 18.9641 29.284 18.0222C29.8278 17.0803 29.8278 15.9199 29.284 14.9781C28.7402 14.0362 27.7351 13.4559 26.6475 13.4559ZM26.6475 17.515H6.35249C5.98994 17.515 5.65485 17.3216 5.47355 17.0076C5.29224 16.6937 5.29227 16.3067 5.47355 15.9928C5.65482 15.6788 5.98992 15.4854 6.35249 15.4854H26.6475C27.01 15.4854 27.3451 15.6788 27.5264 15.9928C27.7077 16.3067 27.7077 16.6937 27.5264 17.0076C27.3452 17.3216 27.0101 17.515 26.6475 17.515Z" fill="#976819"/>
<path d="M26.6475 23.6034H6.35248C5.26483 23.6034 4.25975 24.1837 3.71596 25.1256C3.17217 26.0674 3.17214 27.2278 3.71596 28.1697C4.25978 29.1115 5.26483 29.6919 6.35248 29.6919H26.6475C27.7351 29.6919 28.7402 29.1116 29.284 28.1697C29.8278 27.2278 29.8278 26.0674 29.284 25.1256C28.7402 24.1837 27.7351 23.6034 26.6475 23.6034ZM26.6475 27.6624H6.35248C5.98993 27.6624 5.65484 27.4691 5.47353 27.1551C5.29223 26.8412 5.29226 26.4542 5.47353 26.1402C5.65481 25.8263 5.98991 25.6329 6.35248 25.6329H26.6475C27.01 25.6329 27.3451 25.8263 27.5264 26.1402C27.7077 26.4542 27.7077 26.8412 27.5264 27.1551C27.3452 27.4691 27.01 27.6624 26.6475 27.6624Z" fill="#976819"/>
</svg>
