<svg width="33" height="33" viewBox="0 0 33 33" fill="none" xmlns="http://www.w3.org/2000/svg">
<path d="M27.3037 5.5332C27.3484 5.48874 27.4211 5.48879 27.4658 5.5332V5.53418C27.5108 5.57913 27.5108 5.65134 27.4658 5.69629L17.7236 15.4395L16.6631 16.5L17.7236 17.5605L27.4658 27.3037C27.5109 27.3488 27.5109 27.4217 27.4658 27.4668C27.4211 27.5111 27.3484 27.5112 27.3037 27.4668L16.5 16.6631L15.4395 17.7236L5.69629 27.4658C5.65124 27.5108 5.57818 27.5108 5.5332 27.4658C5.48874 27.4206 5.48931 27.3486 5.53418 27.3037L15.2764 17.5605L16.3369 16.5L15.2764 15.4395L5.53418 5.69629C5.48921 5.65132 5.48921 5.57915 5.53418 5.53418C5.57914 5.48922 5.65127 5.48916 5.69629 5.53418L15.4395 15.2764L16.5 16.3369L17.5605 15.2764L27.3037 5.53418V5.5332Z" fill="#976819" stroke="#976819" stroke-width="3"/>
</svg>
